<?xml version="1.0" encoding="UTF-8"?>
<svg xmlns="http://www.w3.org/2000/svg" viewBox="0 0 1126.06 1049.53">
  <defs>
    <style>
      .cls-1 {
        stroke: #ff2e1f;
        stroke-miterlimit: 10;
      }

      .cls-1, .cls-2 {
        fill: none;
      }

      .cls-2 {
        stroke: red;
        stroke-miterlimit: 11.34;
        stroke-width: .71px;
      }
    </style>
  </defs>
  <g id="Layer_1" data-name="Layer 1">
    <path class="cls-2" d="M550.28,598.46h-9.92v8.5h-22.68v-8.5h-22.68v8.5h-22.68v-8.5h-22.68v8.5h-22.68v-8.5h-22.68v8.5h-22.68v-8.5h-22.68v8.5h-22.68v-8.5h-22.68v8.5h-22.68v-8.5h-22.68v8.5h-22.68v-8.5h-22.68v8.5h-22.68v-8.5h-22.68v8.5h-22.68v-8.5h-22.68v8.5h-22.68v-8.5h-22.68v8.5h-22.68v-8.5h-22.68v8.5h-22.68v-8.5h-9.92v32.6H.35v22.68h8.5v22.68H.35v22.68h8.5v22.68H.35v22.68h8.5v22.68H.35v22.68h8.5v22.68H.35v22.68h8.5v22.68H.35v22.68h8.5v22.68H.35v22.68h8.5v22.68H.35v22.68h8.5v22.68H.35v22.68h8.5v32.6h9.92v-8.5h22.68v8.5h22.68v-8.5h22.68v8.5h22.68v-8.5h22.68v8.5h22.68v-8.5h22.68v8.5h22.68v-8.5h22.68v8.5h22.68v-8.5h22.68v8.5h22.68v-8.5h22.68v8.5h22.68v-8.5h22.68v8.5h22.68v-8.5h22.68v8.5h22.68v-8.5h22.68v8.5h22.68v-8.5h22.68v8.5h22.68v-8.5h22.68v8.5h9.92v-32.6h8.5v-22.68h-8.5v-22.68h8.5v-22.68h-8.5v-22.68h8.5v-22.68h-8.5v-22.68h8.5v-22.68h-8.5v-22.68h8.5v-22.68h-8.5v-22.68h8.5v-22.68h-8.5v-22.68h8.5v-22.68h-8.5v-22.68h8.5v-22.68h-8.5v-22.68h8.5v-22.68h-8.5v-32.6Z"/>
    <path class="cls-2" d="M1117.2,598.46h-9.92v8.5h-22.68v-8.5h-22.68v8.5h-22.68v-8.5h-22.68v8.5h-22.68v-8.5h-22.68v8.5h-22.68v-8.5h-22.68v8.5h-22.68v-8.5h-22.68v8.5h-22.68v-8.5h-22.68v8.5h-22.68v-8.5h-22.68v8.5h-22.68v-8.5h-22.68v8.5h-22.68v-8.5h-22.68v8.5h-22.68v-8.5h-22.68v8.5h-22.68v-8.5h-22.68v8.5h-22.68v-8.5h-9.92v32.6h-8.5v22.68h8.5v22.68h-8.5v22.68h8.5v22.68h-8.5v22.68h8.5v22.68h-8.5v22.68h8.5v22.68h-8.5v22.68h8.5v22.68h-8.5v22.68h8.5v22.68h-8.5v22.68h8.5v22.68h-8.5v22.68h8.5v22.68h-8.5v22.68h8.5v32.6h9.92v-8.5h22.68v8.5h22.68v-8.5h22.68v8.5h22.68v-8.5h22.68v8.5h22.68v-8.5h22.68v8.5h22.68v-8.5h22.68v8.5h22.68v-8.5h22.68v8.5h22.68v-8.5h22.68v8.5h22.68v-8.5h22.68v8.5h22.68v-8.5h22.68v8.5h22.68v-8.5h22.68v8.5h22.68v-8.5h22.68v8.5h22.68v-8.5h22.68v8.5h9.92v-32.6h8.5v-22.68h-8.5v-22.68h8.5v-22.68h-8.5v-22.68h8.5v-22.68h-8.5v-22.68h8.5v-22.68h-8.5v-22.68h8.5v-22.68h-8.5v-22.68h8.5v-22.68h-8.5v-22.68h8.5v-22.68h-8.5v-22.68h8.5v-22.68h-8.5v-22.68h8.5v-22.68h-8.5v-32.6Z"/>
    <path class="cls-2" d="M130.75.35h-8.5v8.5h-22.68V.35h-22.68v8.5h-22.68V.35h-22.68v8.5H8.86V.35H.35v32.6h8.5v22.68H.35v22.68h8.5v22.68H.35v22.68h8.5v22.68H.35v22.68h8.5v22.68H.35v22.68h8.5v22.68H.35v22.68h8.5v22.68H.35v22.68h8.5v22.68H.35v22.68h8.5v22.68H.35v22.68h8.5v22.68H.35v32.6h8.5v-8.5h22.68v8.5h22.68v-8.5h22.68v8.5h22.68v-8.5h22.68v8.5h8.5v-32.6h-8.5v-22.68h8.5v-22.68h-8.5v-22.68h8.5v-22.68h-8.5v-22.68h8.5v-22.68h-8.5v-22.68h8.5v-22.68h-8.5v-22.68h8.5v-22.68h-8.5v-22.68h8.5v-22.68h-8.5v-22.68h8.5v-22.68h-8.5v-22.68h8.5v-22.68h-8.5v-22.68h8.5V.35Z"/>
    <path class="cls-2" d="M269.65.35h-8.5v8.5h-22.68V.35h-22.68v8.5h-22.68V.35h-22.68v8.5h-22.68V.35h-8.5v32.6h8.5v22.68h-8.5v22.68h8.5v22.68h-8.5v22.68h8.5v22.68h-8.5v22.68h8.5v22.68h-8.5v22.68h8.5v22.68h-8.5v22.68h8.5v22.68h-8.5v22.68h8.5v22.68h-8.5v22.68h8.5v22.68h-8.5v22.68h8.5v22.68h-8.5v32.6h8.5v-8.5h22.68v8.5h22.68v-8.5h22.68v8.5h22.68v-8.5h22.68v8.5h8.5v-32.6h-8.5v-22.68h8.5v-22.68h-8.5v-22.68h8.5v-22.68h-8.5v-22.68h8.5v-22.68h-8.5v-22.68h8.5v-22.68h-8.5v-22.68h8.5v-22.68h-8.5v-22.68h8.5v-22.68h-8.5v-22.68h8.5v-22.68h-8.5v-22.68h8.5v-22.68h-8.5v-22.68h8.5V.35Z"/>
    <path class="cls-2" d="M540.35,459.57h-22.68v8.5h-22.68v-8.5h-22.68v8.5h-22.68v-8.5h-22.68v8.5h-22.68v-8.5h-22.68v8.5h-22.68v-8.5h-22.68v8.5h-22.68v-8.5h-22.68v8.5h-22.68v-8.5h-22.68v8.5h-22.68v-8.5h-22.68v8.5h-22.68v-8.5h-22.68v8.5h-22.68v-8.5h-22.68v8.5h-22.68v-8.5h-22.68v8.5h-22.68v-8.5h-22.68v8.5H.35v22.68h8.5v22.68H.35v22.68h8.5v22.68H.35v22.68h18.43v8.5h22.68v-8.5h22.68v8.5h22.68v-8.5h22.68v8.5h22.68v-8.5h22.68v8.5h22.68v-8.5h22.68v8.5h22.68v-8.5h22.68v8.5h22.68v-8.5h22.68v8.5h22.68v-8.5h22.68v8.5h22.68v-8.5h22.68v8.5h22.68v-8.5h22.68v8.5h22.68v-8.5h22.68v8.5h22.68v-8.5h22.68v8.5h22.68v-8.5h18.43v-22.68h-8.5v-22.68h8.5v-22.68h-8.5v-22.68h8.5v-22.68h-18.43v-8.5Z"/>
    <path class="cls-2" d="M1107.28,459.57h-22.68v8.5h-22.68v-8.5h-22.68v8.5h-22.68v-8.5h-22.68v8.5h-22.68v-8.5h-22.68v8.5h-22.68v-8.5h-22.68v8.5h-22.68v-8.5h-22.68v8.5h-22.68v-8.5h-22.68v8.5h-22.68v-8.5h-22.68v8.5h-22.68v-8.5h-22.68v8.5h-22.68v-8.5h-22.68v8.5h-22.68v-8.5h-22.68v8.5h-22.68v-8.5h-22.68v8.5h-18.43v22.68h8.5v22.68h-8.5v22.68h8.5v22.68h-8.5v22.68h18.43v8.5h22.68v-8.5h22.68v8.5h22.68v-8.5h22.68v8.5h22.68v-8.5h22.68v8.5h22.68v-8.5h22.68v8.5h22.68v-8.5h22.68v8.5h22.68v-8.5h22.68v8.5h22.68v-8.5h22.68v8.5h22.68v-8.5h22.68v8.5h22.68v-8.5h22.68v8.5h22.68v-8.5h22.68v8.5h22.68v-8.5h22.68v8.5h22.68v-8.5h18.43v-22.68h-8.5v-22.68h8.5v-22.68h-8.5v-22.68h8.5v-22.68h-18.43v-8.5Z"/>
  </g>
  <g id="Layer_2" data-name="Layer 2">
    <rect class="cls-1" x="66.62" y="664.45" width="204.09" height="70.87"/>
    <rect class="cls-1" x="74.28" y="787.76" width="189.92" height="192.76"/>
    <rect class="cls-1" x="352.31" y="663.68" width="119.06" height="121.89"/>
    <rect class="cls-1" x="324.34" y="880.31" width="36.85" height="28.35"/>
    <rect class="cls-1" x="391.31" y="822.48" width="36.85" height="28.35"/>
    <rect class="cls-1" x="393.23" y="937.36" width="36.85" height="28.35"/>
    <rect class="cls-1" x="460.24" y="879.92" width="36.85" height="28.35"/>
    <rect class="cls-1" x="392.08" y="879.92" width="36.85" height="28.35"/>
  </g>
</svg>